<?xml version="1.0" standalone="no"?>
<!DOCTYPE svg PUBLIC "-//W3C//DTD SVG 20010904//EN"
 "http://www.w3.org/TR/2001/REC-SVG-20010904/DTD/svg10.dtd">
<svg version="1.0" xmlns="http://www.w3.org/2000/svg"
 width="512.000000pt" height="512.000000pt" viewBox="0 0 512.000000 512.000000"
 preserveAspectRatio="xMidYMid meet">
<metadata>
Created by potrace 1.14, written by Peter Selinger 2001-2017
</metadata>
<g transform="translate(0.000000,512.000000) scale(0.100000,-0.100000)"
fill="#000000" stroke="none">
<path d="M3310 4511 c0 -6 6 -11 14 -11 8 0 16 -5 18 -12 2 -6 15 -13 28 -15
27 -4 27 -4 -22 26 -21 12 -38 18 -38 12z"/>
<path d="M3328 4453 c7 -3 16 -2 19 1 4 3 -2 6 -13 5 -11 0 -14 -3 -6 -6z"/>
<path d="M2591 4255 c-7 -9 -10 -19 -6 -23 4 -4 10 -1 12 6 3 6 12 12 20 12
10 0 13 -6 9 -17 -6 -17 -5 -17 8 0 7 9 21 17 30 17 13 0 16 -5 10 -22 -8 -28
-24 -40 -43 -33 -8 3 -24 -4 -37 -16 -13 -13 -30 -19 -39 -15 -24 9 -29 -19
-10 -56 9 -18 19 -53 22 -78 6 -39 4 -43 -9 -33 -8 7 -18 10 -21 7 -3 -4 -9 5
-13 20 -3 14 -10 23 -15 20 -5 -3 -9 1 -9 8 0 11 -2 11 -9 0 -6 -10 -11 -9
-22 4 -12 16 -12 17 1 9 13 -8 13 -6 2 8 -8 9 -22 19 -33 22 -11 4 -17 11 -14
16 4 5 -6 9 -20 9 -18 0 -24 4 -19 13 6 9 5 9 -8 0 -8 -7 -18 -10 -21 -6 -4 3
-7 0 -7 -8 0 -8 -16 4 -35 25 -22 26 -44 41 -62 43 -15 1 -41 4 -56 5 -15 2
-31 8 -35 14 -4 6 -18 15 -31 19 -19 6 -23 4 -18 -8 3 -9 -1 -18 -10 -21 -13
-5 -13 -9 -2 -23 12 -14 12 -16 0 -8 -11 6 -13 3 -9 -13 4 -12 2 -22 -3 -22
-5 0 -9 5 -9 11 0 8 -4 8 -14 0 -11 -9 -15 -9 -19 1 -4 10 -6 10 -6 0 -1 -7
10 -17 24 -22 33 -13 32 -22 -2 -20 -16 1 -39 1 -53 0 -22 -2 -20 -3 8 -9 18
-3 32 -10 32 -15 -1 -5 4 -13 12 -17 10 -7 10 -9 0 -9 -7 0 -10 -4 -7 -10 4
-6 -10 -8 -37 -5 -37 3 -40 2 -20 -7 12 -6 22 -17 22 -24 0 -8 7 -11 18 -8 12
4 10 0 -7 -14 -20 -16 -21 -20 -7 -25 10 -4 15 -3 11 3 -3 6 -2 10 3 10 6 0
12 -7 16 -15 3 -9 0 -15 -8 -15 -9 0 -12 -8 -8 -25 4 -24 18 -30 70 -28 6 1
12 -4 12 -9 0 -6 7 -5 15 2 9 7 19 10 22 6 4 -4 1 -11 -7 -17 -10 -6 -1 -7 28
-3 29 5 42 3 42 -5 0 -7 -5 -9 -12 -5 -7 4 -8 3 -4 -4 4 -7 17 -12 30 -12 12
0 28 -6 35 -12 6 -7 16 -14 22 -14 5 -1 11 -3 14 -4 3 -1 8 -3 13 -4 4 -1 18
-9 32 -18 28 -19 80 -33 190 -52 74 -13 105 -11 79 5 -7 4 -10 11 -6 15 3 4
14 -3 24 -14 10 -12 29 -23 43 -26 l25 -4 0 187 c0 180 1 187 24 217 27 37 23
73 -13 118 -29 35 -102 47 -125 21z m59 -89 c0 -2 2 -10 5 -18 4 -10 -6 -13
-40 -13 -25 0 -45 1 -45 2 0 1 12 9 28 17 26 15 52 20 52 12z m-18 -241 c2
-19 0 -42 -5 -51 -5 -9 -6 -14 -1 -11 5 3 10 -17 10 -43 2 -39 -1 -47 -15 -46
-13 2 -16 17 -19 76 -1 47 2 78 10 88 10 13 10 14 1 8 -7 -4 -13 -2 -13 3 0 6
6 11 14 11 8 0 15 -14 18 -35z"/>
<path d="M3907 4257 c-7 -19 8 -43 17 -28 4 6 3 11 -3 11 -6 0 -8 7 -5 15 4 8
4 15 1 15 -3 0 -7 -6 -10 -13z"/>
<path d="M3933 4216 c-19 -22 -20 -26 -7 -43 13 -17 14 -17 7 2 -6 18 -5 18
10 6 13 -10 16 -22 11 -46 -3 -19 -1 -35 4 -39 7 -4 9 3 6 19 -3 19 -1 23 11
19 8 -3 12 -11 8 -18 -20 -31 -11 -74 15 -72 12 1 18 -8 20 -29 l2 -30 -19 22
c-10 12 -22 19 -26 15 -3 -4 -5 -1 -3 7 2 7 -4 16 -12 19 -8 2 -12 1 -7 -3 4
-5 0 -16 -9 -26 -10 -11 -12 -19 -5 -24 6 -3 11 1 11 10 0 23 20 14 44 -19 17
-22 18 -29 7 -35 -11 -7 -11 -9 0 -14 9 -4 10 -8 4 -14 -5 -4 -11 -14 -13 -22
-3 -12 0 -12 12 -1 13 10 16 10 16 -4 0 -9 -7 -16 -15 -16 -8 0 -15 -5 -15
-11 0 -6 9 -9 19 -6 14 3 18 1 14 -9 -3 -8 -11 -14 -19 -14 -8 0 -14 -5 -14
-11 0 -6 8 -8 18 -5 15 5 15 5 -1 -8 -17 -13 -17 -15 -1 -24 9 -5 14 -15 12
-23 -3 -8 -1 -21 3 -31 7 -13 5 -15 -11 -11 -11 3 -20 0 -20 -6 0 -7 -10 -2
-22 9 -28 26 -53 22 -53 -9 0 -14 -6 -26 -13 -29 -14 -4 -6 -22 9 -22 6 0 7 5
4 10 -3 6 -2 10 4 10 5 0 13 -4 16 -10 3 -5 1 -10 -4 -10 -6 0 -11 -13 -11
-29 0 -37 -11 -44 -46 -31 -24 9 -25 9 -14 -5 7 -8 16 -12 21 -9 5 3 9 -7 9
-23 0 -20 -3 -24 -9 -14 -12 19 -42 6 -35 -14 5 -13 1 -15 -22 -10 -16 3 -23
2 -16 -1 6 -3 10 -9 7 -14 -3 -4 2 -13 10 -20 12 -10 15 -9 15 4 0 10 5 14 10
11 6 -3 10 -20 10 -37 0 -25 -3 -28 -14 -19 -18 15 -31 -15 -15 -35 6 -8 9
-20 5 -29 -3 -9 3 -19 15 -25 11 -6 17 -16 13 -21 -4 -7 -10 -7 -17 0 -17 17
-26 13 -20 -11 3 -17 2 -19 -5 -9 -14 19 -23 -8 -10 -31 5 -12 5 -18 -2 -18
-5 0 -10 -4 -10 -9 0 -6 9 -8 19 -6 17 3 18 0 11 -25 -4 -16 -6 -31 -2 -34 3
-3 1 -6 -5 -6 -6 0 -13 -9 -16 -20 -4 -17 -2 -18 15 -9 15 8 23 8 32 -1 8 -8
7 -10 -6 -5 -13 5 -18 2 -18 -10 0 -10 4 -13 13 -9 8 5 7 2 -2 -9 -12 -15 -11
-21 10 -43 21 -22 21 -24 4 -18 -11 4 -26 11 -32 17 -23 17 -15 -17 9 -43 23
-25 25 -29 35 -81 4 -22 2 -30 -6 -25 -6 4 -12 17 -12 29 -1 17 -2 18 -6 5 -2
-10 -11 -18 -18 -18 -9 0 -12 -6 -9 -15 8 -20 -6 -19 -22 3 -16 21 -19 0 -4
-29 8 -15 7 -19 -4 -19 -8 0 -18 5 -21 10 -8 12 -25 13 -25 1 0 -5 11 -12 25
-15 17 -4 22 -11 18 -22 -5 -14 -2 -13 17 2 12 11 30 27 40 37 15 15 18 16 23
3 4 -10 -4 -18 -26 -26 -18 -7 -26 -14 -19 -17 6 -3 10 -9 6 -14 -3 -5 1 -9 8
-9 8 0 23 -6 34 -14 18 -14 18 -15 -3 -13 -13 1 -23 5 -23 9 0 4 -7 8 -16 8
-14 0 -14 -2 -3 -16 19 -23 22 -54 4 -54 -8 0 -15 -5 -15 -12 0 -6 3 -8 7 -5
8 8 33 -11 33 -25 0 -6 -8 -4 -17 3 -16 13 -16 13 0 -11 21 -30 21 -40 1 -40
-8 0 -12 -5 -9 -11 4 -5 0 -18 -7 -27 -8 -9 -18 -24 -22 -32 -4 -8 -1 -7 7 3
15 18 16 18 25 0 12 -21 -1 -53 -21 -53 -7 0 -6 4 3 10 12 8 10 10 -8 10 -18
0 -23 -5 -20 -22 2 -18 -2 -23 -19 -23 -12 0 -25 -3 -29 -7 -14 -15 -24 -8
-24 15 0 13 5 28 12 35 12 12 10 13 -14 16 -16 1 -23 36 -8 36 6 0 9 4 5 10
-3 5 -12 7 -19 4 -7 -3 -19 2 -26 12 -17 19 -24 58 -10 49 6 -3 7 1 4 9 -3 9
-13 16 -21 16 -12 0 -14 7 -10 28 5 22 2 28 -13 29 -23 2 -77 49 -67 59 4 4 7
2 7 -4 0 -7 4 -12 10 -12 5 0 7 7 4 15 -8 20 -34 19 -34 -1 0 -11 -6 -14 -20
-9 -11 4 -20 2 -20 -4 0 -6 9 -11 20 -11 11 0 20 -4 20 -10 0 -5 9 -10 20 -10
13 0 20 -7 20 -20 0 -11 -4 -20 -10 -20 -5 0 -10 7 -10 15 0 8 -14 17 -34 21
-19 3 -37 12 -40 20 -3 8 -13 14 -22 14 -13 0 -11 -5 10 -25 14 -13 26 -26 26
-28 0 -4 -29 -7 -72 -8 -21 0 -23 -12 -5 -28 9 -7 17 -7 24 0 7 7 14 5 22 -5
10 -12 9 -14 -8 -9 -27 7 -29 -23 -3 -44 15 -13 15 -13 -4 -4 -12 6 -25 7 -29
3 -4 -4 -6 0 -3 8 5 17 -14 40 -33 40 -8 0 -7 -4 3 -12 19 -15 14 -68 -7 -68
-6 0 -23 -13 -37 -28 -19 -21 -23 -33 -16 -45 7 -13 5 -17 -7 -17 -8 0 -15 -7
-15 -15 0 -10 -6 -12 -17 -8 -16 6 -16 5 -4 -10 7 -9 10 -17 6 -17 -4 0 -1 -8
6 -17 7 -10 9 -15 5 -11 -5 4 -15 3 -23 -3 -10 -9 -13 -6 -14 12 l0 24 -10
-23 c-5 -13 -7 -28 -4 -32 3 -5 1 -11 -4 -15 -6 -3 -7 -13 -4 -22 4 -11 3 -14
-5 -9 -7 4 -12 2 -12 -3 0 -6 4 -11 8 -11 5 0 15 -17 22 -39 12 -38 2 -81 -19
-81 -4 0 -8 -23 -8 -51 0 -28 -4 -54 -9 -57 -5 -4 -10 -14 -11 -22 -4 -30 -28
-90 -36 -90 -5 0 -5 -4 -2 -10 3 -5 3 -15 -1 -22 -5 -7 -11 -5 -21 7 -12 18
-13 17 -13 -8 0 -20 4 -25 17 -20 11 4 14 3 9 -5 -4 -7 -14 -12 -22 -12 -8 0
-14 -7 -14 -15 0 -23 16 -18 39 11 18 23 21 24 21 8 1 -16 3 -15 15 6 8 14 14
21 15 16 0 -16 -23 -91 -33 -103 -7 -9 -4 -13 9 -14 13 0 15 -2 5 -6 -8 -3
-20 2 -28 13 -18 24 -16 34 5 34 14 0 15 2 2 10 -13 8 -12 10 5 10 15 0 17 2
6 12 -10 11 -15 9 -27 -7 -8 -11 -21 -19 -29 -17 -7 1 -17 -3 -21 -9 -4 -8 -3
-9 4 -5 7 4 12 1 12 -8 0 -8 -5 -18 -12 -22 -7 -5 -8 -2 -3 7 5 8 4 11 -1 6
-5 -5 -9 -29 -9 -53 0 -44 6 -50 43 -45 11 2 11 -2 1 -20 -8 -16 -9 -24 -1
-27 6 -2 8 -15 6 -29 -4 -20 -1 -24 11 -20 10 4 15 1 15 -10 0 -9 -3 -13 -7
-10 -3 4 -12 -2 -20 -13 -8 -11 -19 -20 -25 -20 -7 0 -3 6 8 14 18 14 18 15 1
12 -22 -3 -37 -24 -30 -43 3 -7 -2 -13 -11 -13 -11 0 -16 -9 -16 -26 0 -17 4
-23 13 -18 9 6 9 4 -1 -8 -7 -9 -21 -14 -31 -11 -25 6 -43 -19 -33 -48 l9 -23
15 29 c15 28 16 28 23 6 5 -15 12 -20 25 -16 10 3 20 0 23 -9 5 -12 -1 -13
-29 -9 -20 3 -34 1 -34 -5 0 -14 25 -22 56 -16 l27 5 -24 -20 c-15 -12 -26
-15 -30 -9 -4 6 -12 7 -18 4 -6 -4 -11 -1 -12 6 0 7 -5 4 -10 -7 -9 -19 -9
-19 -5 1 4 26 -27 57 -42 42 -12 -12 -35 -1 -27 13 4 5 1 9 -5 9 -19 0 -21
-25 -5 -56 13 -26 21 -26 16 0 -1 5 5 4 13 -3 9 -7 13 -18 9 -24 -3 -6 -1 -7
6 -3 8 6 9 12 2 20 -10 12 -5 26 8 26 3 0 6 -22 6 -49 0 -27 -3 -44 -7 -38 -5
8 -8 5 -8 -8 -1 -18 -1 -19 -11 -2 -5 9 -7 22 -4 27 4 6 1 9 -6 8 -7 -2 -17 6
-23 18 -10 18 -13 19 -25 7 -7 -8 -19 -12 -27 -9 -8 3 -14 1 -14 -4 0 -5 8
-11 18 -13 15 -4 15 -5 1 -6 -9 0 -19 -8 -23 -16 -4 -13 -2 -13 14 -5 10 5 22
15 25 20 9 15 25 12 25 -6 0 -8 4 -13 9 -10 5 3 8 -5 7 -19 0 -14 -4 -25 -8
-25 -5 0 -8 -7 -8 -15 0 -8 3 -14 8 -13 4 2 7 -1 7 -7 0 -5 -13 -9 -29 -8 -23
2 -27 -1 -23 -18 3 -12 0 -19 -9 -19 -9 0 -11 -6 -7 -17 6 -15 4 -16 -9 -6 -8
7 -18 10 -21 6 -10 -9 -9 -25 1 -19 4 2 7 -8 6 -22 -2 -45 29 -70 39 -32 3 14
0 20 -11 20 -8 0 -13 3 -9 6 3 3 14 3 25 -1 19 -5 19 -8 6 -33 -8 -15 -14 -33
-14 -40 0 -13 -45 -7 -65 9 -13 10 -34 7 -60 -9 -18 -12 -18 -12 10 -11 52 3
90 -1 80 -9 -5 -4 -16 -14 -23 -23 -10 -13 -9 -19 5 -30 15 -13 16 -12 11 9
l-6 23 31 -20 c21 -14 31 -28 30 -41 -3 -25 14 -27 20 -2 3 11 5 8 6 -9 1 -33
28 -59 33 -33 2 14 5 13 15 -8 10 -23 9 -26 -5 -23 -9 1 -20 -3 -24 -9 -6 -8
-8 -8 -8 1 0 6 -9 9 -20 6 -22 -6 -26 -18 -10 -28 6 -3 10 -14 9 -23 0 -14 -2
-14 -10 3 -8 17 -9 16 -6 -7 4 -25 2 -26 -24 -21 -25 5 -29 2 -29 -16 0 -11
-4 -21 -10 -21 -5 0 -10 -4 -10 -9 0 -11 47 -7 58 4 4 4 -3 4 -15 1 -18 -6
-21 -4 -16 14 4 15 11 20 25 17 10 -3 31 1 46 9 15 8 21 14 15 14 -7 0 -13 8
-13 17 0 15 2 14 19 -3 18 -19 18 -19 -3 -29 -13 -6 -20 -17 -18 -28 4 -18 4
-18 17 -1 11 15 16 16 28 6 12 -10 17 -10 23 -1 4 7 2 15 -4 17 -19 6 -14 18
7 18 13 0 17 -6 13 -20 -4 -15 -1 -18 12 -13 10 4 15 3 11 -3 -3 -6 -13 -10
-21 -10 -8 0 -14 -5 -14 -11 0 -6 7 -9 14 -6 19 7 76 -20 76 -36 0 -8 -3 -9
-8 -1 -4 6 -15 14 -26 17 -14 6 -17 3 -12 -8 3 -8 2 -15 -3 -15 -4 0 -8 -6 -8
-13 0 -17 82 -16 99 0 6 7 16 13 21 13 15 0 -39 -40 -55 -41 -7 0 -2 -5 12
-10 20 -8 22 -12 10 -20 -13 -9 -13 -10 1 -6 9 3 22 1 30 -4 11 -7 9 -9 -8 -9
-26 0 -27 -3 -13 -31 9 -16 7 -19 -15 -19 -15 0 -24 4 -20 10 3 6 1 10 -4 10
-15 0 -13 -11 4 -34 21 -28 0 -56 -37 -49 -23 5 -27 3 -22 -11 3 -9 17 -16 30
-16 13 0 24 -4 24 -10 0 -5 -4 -10 -10 -10 -21 0 -9 -15 13 -16 12 0 29 -2 37
-5 9 -2 15 4 16 18 1 14 -3 20 -12 16 -10 -3 -13 4 -11 25 1 17 6 28 10 25 4
-3 6 -10 4 -16 -5 -15 22 -36 46 -37 9 0 17 -4 17 -10 0 -5 -8 -14 -17 -20
-15 -10 -14 -11 7 -6 14 3 32 6 40 7 10 0 9 3 -4 8 -13 5 -16 10 -9 14 6 4 18
1 26 -7 9 -10 18 -11 24 -5 14 14 71 20 78 8 4 -5 11 -7 16 -3 5 3 7 9 5 13
-3 4 7 8 22 9 30 2 92 32 92 44 0 5 5 8 11 8 5 0 7 -6 3 -12 -6 -10 -5 -10 7
-1 8 6 17 12 22 12 33 2 237 116 237 133 0 5 4 7 9 3 13 -7 87 41 190 123 80
64 171 149 171 159 0 2 16 19 35 37 19 19 35 37 35 42 1 14 37 54 49 54 6 0
11 7 11 15 0 8 5 15 10 15 6 0 10 6 10 13 0 7 10 23 23 37 39 44 73 93 112
165 21 39 46 81 56 94 10 13 16 27 14 31 -3 5 -1 11 4 15 21 12 134 267 147
329 2 11 10 40 18 65 29 95 46 157 52 191 4 19 11 40 15 46 5 6 14 47 19 90 6
43 12 85 15 94 12 40 26 250 26 390 0 157 -6 218 -42 391 -11 52 -21 104 -23
115 -2 10 -9 33 -16 49 -6 17 -11 30 -10 30 2 0 -6 26 -29 88 -11 33 -21 70
-21 83 0 13 -5 24 -12 24 -6 0 -9 3 -5 6 7 7 -39 118 -65 156 -10 14 -18 31
-18 37 0 6 -9 20 -20 31 -11 11 -17 20 -13 20 3 0 -2 9 -11 19 -10 11 -27 37
-39 59 -12 22 -36 56 -54 75 -17 19 -29 38 -26 41 4 3 -1 6 -10 6 -9 0 -26 17
-37 38 -19 37 -59 83 -95 112 -11 9 -16 10 -11 3 4 -7 2 -13 -3 -13 -6 0 -11
9 -11 21 0 11 -5 17 -10 14 -6 -4 -8 -11 -5 -16 11 -17 -15 -9 -31 10 -10 11
-24 17 -37 13 -13 -3 -18 -1 -14 5 4 6 0 14 -9 17 -10 4 -13 2 -8 -7 9 -15
-26 12 -43 33 -11 13 -14 13 -22 0 -7 -10 -6 -17 2 -23 8 -6 8 -7 -3 -4 -9 2
-15 15 -15 30 1 27 -9 35 -20 17 -3 -5 -16 -10 -28 -10 -22 0 -22 -1 3 -21
l25 -21 -25 14 c-14 9 -25 20 -25 26 0 22 -12 21 -32 -2z m378 -159 c-1 -12
-15 -9 -19 4 -3 6 1 10 8 8 6 -3 11 -8 11 -12z m-261 -307 c0 -5 -2 -10 -4
-10 -3 0 -8 5 -11 10 -3 6 -1 10 4 10 6 0 11 -4 11 -10z m-96 -46 c3 -8 2 -12
-4 -9 -6 3 -10 10 -10 16 0 14 7 11 14 -7z m62 -20 c18 -14 18 -14 -6 -3 -31
14 -36 19 -24 19 6 0 19 -7 30 -16z m-56 -124 c0 -5 -2 -10 -4 -10 -3 0 -8 5
-11 10 -3 6 -1 10 4 10 6 0 11 -4 11 -10z m-60 -72 c0 -5 5 -6 12 -2 7 5 8 2
3 -7 -17 -29 -28 -39 -37 -33 -5 3 -4 12 3 20 9 11 9 18 -1 29 -11 13 -10 14
4 9 9 -3 16 -10 16 -16z m-10 -208 c0 -5 -2 -10 -4 -10 -3 0 -8 5 -11 10 -3 6
-1 10 4 10 6 0 11 -4 11 -10z m-19 -167 c13 -16 12 -17 -3 -4 -17 13 -22 21
-14 21 2 0 10 -8 17 -17z m-7 -64 c-6 -11 -24 -2 -24 11 0 5 7 7 15 4 8 -4 12
-10 9 -15z m-9 -179 c3 -5 1 -10 -4 -10 -6 0 -11 5 -11 10 0 6 2 10 4 10 3 0
8 -4 11 -10z m60 -50 c3 -5 1 -10 -4 -10 -6 0 -11 5 -11 10 0 6 2 10 4 10 3 0
8 -4 11 -10z m-375 -44 c0 -2 -7 -6 -15 -10 -8 -3 -15 -1 -15 4 0 6 7 10 15
10 8 0 15 -2 15 -4z m80 -68 c0 -5 -4 -8 -10 -8 -5 0 -10 10 -10 23 0 18 2 19
10 7 5 -8 10 -18 10 -22z m254 16 c3 -8 2 -12 -4 -9 -6 3 -10 10 -10 16 0 14
7 11 14 -7z m23 -16 c-3 -8 -6 -5 -6 6 -1 11 2 17 5 13 3 -3 4 -12 1 -19z
m-310 -10 c-3 -8 -6 -5 -6 6 -1 11 2 17 5 13 3 -3 4 -12 1 -19z m-161 -40 c4
-7 3 -8 -4 -4 -7 4 -12 1 -12 -8 0 -9 -4 -16 -10 -16 -12 0 -12 3 -4 24 7 19
20 21 30 4z m441 -10 c-3 -8 -6 -5 -6 6 -1 11 2 17 5 13 3 -3 4 -12 1 -19z
m-207 -24 c0 -8 -5 -12 -10 -9 -6 4 -8 11 -5 16 9 14 15 11 15 -7z m200 2 c0
-3 -4 -8 -10 -11 -5 -3 -10 -1 -10 4 0 6 5 11 10 11 6 0 10 -2 10 -4z m-190
-30 c0 -3 -4 -8 -10 -11 -5 -3 -10 -1 -10 4 0 6 5 11 10 11 6 0 10 -2 10 -4z
m-310 -16 c0 -5 -4 -10 -10 -10 -5 0 -10 5 -10 10 0 6 5 10 10 10 6 0 10 -4
10 -10z m30 -29 c0 -5 -7 -12 -16 -15 -14 -5 -15 -4 -4 9 14 17 20 19 20 6z
m-60 -16 c0 -8 5 -15 10 -15 6 0 10 -5 10 -10 0 -6 -7 -6 -18 1 -19 12 -26 39
-10 39 4 0 8 -7 8 -15z m-77 -286 c-5 -19 -7 -19 -15 -5 -10 18 -2 39 12 31 4
-3 6 -15 3 -26z m-16 -89 c1 -11 -2 -20 -8 -20 -10 0 -12 23 -2 33 9 9 9 10
10 -13z m-12 -40 c-3 -5 -1 -10 6 -10 7 0 5 -6 -6 -13 -10 -8 -15 -18 -12 -24
4 -6 -5 -21 -19 -34 -22 -21 -24 -21 -18 -4 4 11 11 25 16 32 6 7 7 16 4 22
-4 5 1 17 10 25 17 18 28 21 19 6z m-75 -212 c0 -7 -4 -19 -9 -27 -7 -10 -9
-7 -8 12 2 26 17 39 17 15z m49 -72 c8 -10 9 -16 1 -21 -6 -3 -7 -12 -4 -18 4
-7 -5 -1 -19 12 -20 18 -24 27 -15 33 18 11 24 10 37 -6z m-62 -252 c2 -13 1
-15 -4 -4 -3 8 -11 19 -17 23 -7 6 -6 7 4 4 8 -2 16 -12 17 -23z m-22 -25 c-4
-5 -13 -9 -22 -9 -13 0 -13 3 -3 15 13 15 35 11 25 -6z m-2 -114 c-3 -9 -8
-14 -10 -11 -3 3 -2 9 2 15 9 16 15 13 8 -4z m-63 -45 c0 -5 -2 -10 -4 -10 -3
0 -8 5 -11 10 -3 6 -1 10 4 10 6 0 11 -4 11 -10z m10 -40 c8 -5 11 -10 5 -10
-5 0 -17 5 -25 10 -8 5 -10 10 -5 10 6 0 17 -5 25 -10z m-20 -64 c0 -2 -7 -7
-16 -10 -8 -3 -12 -2 -9 4 6 10 25 14 25 6z m-53 -35 c10 -13 12 -13 13 -2 0
8 3 12 6 8 14 -14 -7 -27 -27 -16 -17 9 -21 7 -26 -10 -4 -17 -8 -19 -19 -10
-16 13 -19 43 -4 34 6 -4 7 1 3 11 -5 13 -2 15 18 9 13 -4 29 -15 36 -24z
m1138 8 c11 -17 -1 -21 -15 -4 -8 9 -8 15 -2 15 6 0 14 -5 17 -11z m-1112 -63
c6 -15 -1 -26 -15 -26 -5 0 -6 5 -2 11 3 6 0 15 -7 20 -11 7 -11 9 2 9 9 0 19
-6 22 -14z m-73 -56 c0 -5 10 -10 23 -11 12 0 17 -3 10 -5 -9 -4 -9 -13 -2
-31 8 -22 8 -24 -5 -14 -11 9 -20 10 -35 2 -27 -15 -29 -14 -26 12 3 31 3 31
20 17 9 -8 15 -9 15 -2 0 6 -4 14 -10 17 -5 3 -10 10 -10 16 0 5 5 9 10 9 6 0
10 -4 10 -10z m110 -130 c0 -5 -2 -10 -4 -10 -3 0 -8 5 -11 10 -3 6 -1 10 4
10 6 0 11 -4 11 -10z m67 -146 c-3 -3 -12 -4 -19 -1 -8 3 -5 6 6 6 11 1 17 -2
13 -5z m-7 -18 c0 -2 -7 -7 -16 -10 -8 -3 -12 -2 -9 4 6 10 25 14 25 6z m70
-116 c0 -5 -5 -10 -11 -10 -5 0 -7 5 -4 10 3 6 8 10 11 10 2 0 4 -4 4 -10z
m70 -24 c0 -11 -19 -15 -25 -6 -3 5 1 10 9 10 9 0 16 -2 16 -4z m-90 -86 c0
-5 -5 -10 -11 -10 -5 0 -7 5 -4 10 3 6 8 10 11 10 2 0 4 -4 4 -10z m330 -24
c0 -2 -7 -7 -16 -10 -8 -3 -12 -2 -9 4 6 10 25 14 25 6z m-175 -36 c3 -5 1
-10 -4 -10 -6 0 -11 5 -11 10 0 6 2 10 4 10 3 0 8 -4 11 -10z"/>
<path d="M3172 1831 c2 -7 7 -12 11 -12 12 1 9 15 -3 20 -7 2 -11 -2 -8 -8z"/>
<path d="M2028 4203 c7 -3 16 -2 19 1 4 3 -2 6 -13 5 -11 0 -14 -3 -6 -6z"/>
<path d="M2008 4153 c7 -3 16 -2 19 1 4 3 -2 6 -13 5 -11 0 -14 -3 -6 -6z"/>
<path d="M3946 4077 c3 -10 9 -15 12 -12 3 3 0 11 -7 18 -10 9 -11 8 -5 -6z"/>
<path d="M2020 4060 c0 -5 5 -10 10 -10 6 0 10 5 10 10 0 6 -4 10 -10 10 -5 0
-10 -4 -10 -10z"/>
<path d="M3995 4030 c3 -5 8 -10 11 -10 2 0 4 5 4 10 0 6 -5 10 -11 10 -5 0
-7 -4 -4 -10z"/>
<path d="M3975 3980 c3 -5 8 -10 11 -10 2 0 4 5 4 10 0 6 -5 10 -11 10 -5 0
-7 -4 -4 -10z"/>
<path d="M2928 3838 c0 -7 -2 -19 -2 -25 -1 -7 -9 -21 -18 -32 -21 -25 -32
-61 -19 -61 6 0 11 -5 11 -11 0 -5 -4 -8 -9 -5 -5 3 -13 0 -19 -7 -8 -9 -2
-12 23 -12 23 0 31 4 27 13 -4 12 -1 12 16 1 19 -12 24 -11 39 4 9 9 12 17 6
17 -6 0 -13 -5 -15 -12 -3 -8 -6 -9 -11 -1 -4 6 6 25 22 42 26 28 28 33 14 46
-8 8 -25 18 -38 21 -15 4 -22 11 -18 20 3 8 2 14 -1 14 -3 0 -7 -6 -8 -12z"/>
<path d="M3882 3643 c2 -9 8 -18 14 -20 16 -5 13 25 -3 32 -10 3 -13 -1 -11
-12z"/>
<path d="M3800 3411 c0 -6 5 -13 10 -16 6 -3 10 1 10 9 0 9 -4 16 -10 16 -5 0
-10 -4 -10 -9z"/>
<path d="M3772 3392 c-19 -6 -14 -18 12 -30 18 -8 27 -8 34 1 8 9 4 15 -12 23
-12 6 -27 9 -34 6z"/>
<path d="M3762 3354 c9 -3 19 -13 22 -22 3 -12 4 -12 3 3 -1 12 -10 21 -22 22
-15 1 -15 0 -3 -3z"/>
<path d="M3760 3284 c0 -3 4 -13 10 -23 11 -21 40 -36 40 -21 0 6 -7 10 -15
10 -8 0 -14 3 -14 8 3 18 -2 32 -11 32 -5 0 -10 -3 -10 -6z"/>
<path d="M3760 3150 c0 -6 7 -13 15 -16 8 -4 12 -10 9 -15 -3 -5 2 -9 10 -9
13 0 14 4 4 25 -11 25 -38 35 -38 15z"/>
<path d="M3758 3072 c-22 -4 -23 -16 -4 -31 10 -8 16 -9 21 -1 3 5 0 10 -7 10
-10 0 -9 3 2 10 18 11 11 18 -12 12z"/>
<path d="M3793 3012 c-8 -5 -8 -12 2 -25 12 -16 13 -16 18 3 6 22 -3 32 -20
22z"/>
<path d="M3360 2881 c0 -12 5 -21 10 -21 6 0 10 6 10 14 0 8 -4 18 -10 21 -5
3 -10 -3 -10 -14z"/>
<path d="M3655 2820 c-3 -5 -1 -10 4 -10 6 0 11 5 11 10 0 6 -2 10 -4 10 -3 0
-8 -4 -11 -10z"/>
<path d="M3806 2797 c-16 -12 -16 -14 -3 -14 9 0 18 6 21 14 3 7 4 13 3 13 -2
0 -11 -6 -21 -13z"/>
<path d="M3670 2744 c0 -8 5 -12 10 -9 6 4 8 11 5 16 -9 14 -15 11 -15 -7z"/>
<path d="M3250 2695 c0 -8 4 -15 10 -15 5 0 7 7 4 15 -4 8 -8 15 -10 15 -2 0
-4 -7 -4 -15z"/>
<path d="M3754 2701 c4 -5 0 -12 -6 -15 -7 -2 -3 -4 9 -2 12 1 26 6 30 11 5 4
2 5 -4 1 -7 -4 -13 -2 -13 3 0 6 -5 11 -11 11 -5 0 -8 -4 -5 -9z"/>
<path d="M3289 2678 c-8 -26 -4 -34 15 -34 26 1 39 18 23 28 -11 7 -36 11 -38
6z"/>
<path d="M3235 2580 c3 -5 11 -10 16 -10 6 0 7 5 4 10 -3 6 -11 10 -16 10 -6
0 -7 -4 -4 -10z"/>
<path d="M3720 2544 c0 -8 5 -12 10 -9 6 4 8 11 5 16 -9 14 -15 11 -15 -7z"/>
<path d="M3197 2348 c-6 -21 -5 -22 8 -5 13 18 14 17 20 -2 3 -12 11 -19 16
-15 6 4 6 10 0 18 -6 7 -8 16 -4 19 3 4 -3 7 -14 7 -13 0 -23 -8 -26 -22z"/>
<path d="M3147 2256 c-7 -17 29 -63 41 -51 4 3 1 9 -5 13 -7 4 -16 18 -21 31
-7 20 -10 22 -15 7z"/>
<path d="M3121 2206 c-9 -10 -8 -15 2 -19 22 -8 37 6 22 20 -10 10 -16 9 -24
-1z"/>
<path d="M3080 2090 c-6 -11 -8 -20 -6 -20 3 0 10 9 16 20 6 11 8 20 6 20 -3
0 -10 -9 -16 -20z"/>
<path d="M3145 2080 c3 -5 8 -10 11 -10 2 0 4 5 4 10 0 6 -5 10 -11 10 -5 0
-7 -4 -4 -10z"/>
<path d="M3084 1981 c20 -22 26 -25 26 -13 0 4 -10 13 -22 21 -23 14 -23 14
-4 -8z"/>
<path d="M3066 1933 c-6 -14 -5 -15 5 -6 7 7 10 15 7 18 -3 3 -9 -2 -12 -12z"/>
<path d="M3070 1849 c0 -5 5 -7 10 -4 6 3 10 8 10 11 0 2 -4 4 -10 4 -5 0 -10
-5 -10 -11z"/>
<path d="M3093 1788 c1 -6 -7 -14 -18 -16 -34 -7 -37 -19 -5 -20 17 0 28 3 25
8 -3 5 -1 11 5 15 13 8 13 25 0 25 -5 0 -9 -5 -7 -12z"/>
<path d="M3111 1763 c4 -26 -2 -34 -23 -28 -19 6 -21 5 -10 -6 9 -10 17 -11
30 -3 20 13 29 44 13 44 -6 0 -10 -3 -10 -7z"/>
<path d="M3068 1703 c7 -3 16 -2 19 1 4 3 -2 6 -13 5 -11 0 -14 -3 -6 -6z"/>
<path d="M3015 1660 c-3 -5 -1 -10 4 -10 6 0 11 5 11 10 0 6 -2 10 -4 10 -3 0
-8 -4 -11 -10z"/>
<path d="M3030 1605 c-7 -9 -10 -18 -6 -22 3 -3 6 -1 6 5 0 6 7 9 15 6 8 -4
15 -1 15 4 0 19 -17 22 -30 7z"/>
<path d="M2976 1575 c-11 -8 -17 -17 -14 -21 4 -3 16 4 27 15 24 24 15 28 -13
6z"/>
<path d="M2877 1525 c-4 -8 -3 -16 1 -19 13 -8 35 11 28 23 -10 15 -23 14 -29
-4z"/>
<path d="M2432 1447 c10 -8 15 -17 11 -20 -12 -13 12 -6 31 8 19 15 19 15 -1
15 -12 0 -30 3 -40 6 -17 5 -17 5 -1 -9z"/>
<path d="M2325 1410 c3 -5 11 -10 16 -10 6 0 7 5 4 10 -3 6 -11 10 -16 10 -6
0 -7 -4 -4 -10z"/>
<path d="M2777 1393 c-4 -6 -2 -13 5 -15 7 -3 9 -12 5 -22 -4 -9 -12 -14 -18
-11 -6 4 -5 -3 3 -14 10 -17 14 -18 16 -6 2 8 7 15 12 15 4 0 7 11 6 24 0 13
-4 22 -8 20 -3 -2 -8 1 -10 8 -3 9 -6 9 -11 1z"/>
<path d="M2925 1381 c-3 -5 -1 -12 4 -15 5 -3 11 1 15 9 6 16 -9 21 -19 6z"/>
<path d="M2892 1358 c2 -6 10 -13 16 -14 7 -1 8 0 2 3 -5 2 -8 9 -4 14 3 5 0
9 -6 9 -7 0 -10 -5 -8 -12z"/>
<path d="M2931 1334 c0 -11 3 -14 6 -6 3 7 2 16 -1 19 -3 4 -6 -2 -5 -13z"/>
<path d="M2850 1325 c-10 -13 -9 -15 9 -15 11 0 21 4 21 9 0 18 -18 21 -30 6z"/>
<path d="M2540 1320 c0 -5 5 -10 10 -10 6 0 10 5 10 10 0 6 -4 10 -10 10 -5 0
-10 -4 -10 -10z"/>
<path d="M2839 1293 c-5 -42 -4 -63 3 -63 5 0 8 6 5 13 -2 6 0 22 4 35 5 13 5
22 -1 22 -6 0 -10 -3 -11 -7z"/>
<path d="M2773 1272 c-15 -5 -20 -11 -14 -20 6 -10 14 -10 34 -3 15 6 27 13
27 15 0 3 -7 2 -17 -1 -11 -4 -14 -3 -9 5 4 7 6 12 4 11 -2 -1 -13 -4 -25 -7z"/>
<path d="M2695 1216 c-17 -12 -17 -13 3 -18 12 -4 23 0 26 8 8 20 -8 25 -29
10z"/>
<path d="M2760 1214 c0 -8 5 -12 10 -9 6 3 10 10 10 16 0 5 -4 9 -10 9 -5 0
-10 -7 -10 -16z"/>
<path d="M2819 1213 c0 -4 -2 -16 -4 -25 -2 -11 2 -15 11 -11 16 6 19 29 4 38
-5 3 -10 3 -11 -2z"/>
<path d="M2755 1180 c3 -5 10 -10 16 -10 5 0 9 5 9 10 0 6 -7 10 -16 10 -8 0
-12 -4 -9 -10z"/>
<path d="M2384 1155 c-18 -14 -18 -14 3 -15 23 0 39 15 25 24 -5 3 -18 -1 -28
-9z"/>
<path d="M2730 1100 c19 -13 30 -13 30 0 0 6 -10 10 -22 10 -19 0 -20 -2 -8
-10z"/>
<path d="M2790 1100 c0 -5 5 -10 10 -10 6 0 10 5 10 10 0 6 -4 10 -10 10 -5 0
-10 -4 -10 -10z"/>
<path d="M2810 1070 c-13 -8 -12 -10 3 -10 9 0 17 5 17 10 0 12 -1 12 -20 0z"/>
<path d="M2887 1045 c-9 -23 11 -28 23 -5 8 16 8 20 -4 20 -7 0 -16 -7 -19
-15z"/>
<path d="M2810 1028 c0 -4 4 -8 9 -8 6 0 12 4 15 8 3 5 -1 9 -9 9 -8 0 -15 -4
-15 -9z"/>
<path d="M2660 1025 c0 -5 4 -16 9 -23 6 -10 11 -9 22 4 11 14 11 16 0 10 -8
-5 -17 -3 -22 5 -5 8 -9 10 -9 4z"/>
<path d="M2780 1006 c0 -2 7 -7 16 -10 8 -3 12 -2 9 4 -6 10 -25 14 -25 6z"/>
<path d="M2840 989 c0 -10 -4 -19 -10 -19 -5 0 -8 6 -6 13 1 6 1 9 -1 5 -3 -5
-14 -8 -26 -9 -12 0 -16 -3 -9 -6 6 -2 12 -11 12 -19 0 -16 16 -19 25 -4 3 5
13 6 22 3 13 -5 15 -2 11 15 -4 14 -1 22 11 24 12 3 10 5 -6 10 -18 5 -23 2
-23 -13z"/>
<path d="M2895 1000 c-3 -5 -1 -10 4 -10 6 0 11 5 11 10 0 6 -2 10 -4 10 -3 0
-8 -4 -11 -10z"/>
<path d="M2923 988 c-2 -16 1 -18 10 -9 7 7 8 14 1 21 -6 6 -10 2 -11 -12z"/>
<path d="M2739 988 c-6 -21 -5 -39 2 -44 5 -3 6 -10 3 -16 -4 -7 -2 -8 5 -4 6
4 9 12 6 17 -4 5 -1 9 4 9 6 0 11 5 11 11 0 5 -4 7 -10 4 -6 -3 -7 1 -4 9 3 9
1 16 -5 16 -6 0 -11 -1 -12 -2z"/>
<path d="M2826 941 c-4 -6 -2 -11 4 -11 6 0 9 -4 6 -8 -3 -5 1 -9 9 -9 8 0 15
4 15 9 0 5 5 6 12 2 7 -4 8 -3 4 5 -4 6 -12 8 -18 5 -6 -4 -14 -1 -18 6 -5 9
-9 9 -14 1z"/>
<path d="M2797 915 c3 -8 9 -12 14 -9 12 7 11 11 -5 17 -10 4 -13 1 -9 -8z"/>
<path d="M2770 910 c0 -5 5 -10 11 -10 5 0 7 5 4 10 -3 6 -8 10 -11 10 -2 0
-4 -4 -4 -10z"/>
<path d="M2750 879 c0 -5 5 -7 10 -4 6 3 10 8 10 11 0 2 -4 4 -10 4 -5 0 -10
-5 -10 -11z"/>
<path d="M2821 873 c-10 -11 -10 -18 -2 -26 8 -8 11 -7 11 5 0 9 5 18 12 20 7
3 8 7 3 10 -6 3 -16 -1 -24 -9z"/>
<path d="M2973 842 c-1 -10 4 -19 12 -19 7 0 12 7 10 16 -3 22 -20 24 -22 3z"/>
<path d="M2790 815 c0 -8 5 -15 10 -15 6 0 10 7 10 15 0 8 -4 15 -10 15 -5 0
-10 -7 -10 -15z"/>
<path d="M2855 810 c3 -5 8 -10 11 -10 2 0 4 5 4 10 0 6 -5 10 -11 10 -5 0 -7
-4 -4 -10z"/>
<path d="M2957 799 c6 -6 9 -18 6 -27 -4 -10 -2 -13 5 -8 16 9 10 46 -7 46
-11 0 -12 -3 -4 -11z"/>
<path d="M3008 781 c-10 -10 -15 -21 -11 -24 11 -12 23 -8 23 8 0 8 5 15 10
15 6 0 10 5 10 10 0 15 -13 11 -32 -9z"/>
<path d="M3040 739 c0 -5 5 -7 10 -4 6 3 10 8 10 11 0 2 -4 4 -10 4 -5 0 -10
-5 -10 -11z"/>
<path d="M3070 739 c0 -5 5 -7 10 -4 6 3 10 8 10 11 0 2 -4 4 -10 4 -5 0 -10
-5 -10 -11z"/>
<path d="M3106 695 c-3 -9 0 -15 9 -15 16 0 20 16 6 24 -5 3 -11 -1 -15 -9z"/>
</g>
</svg>
